<?xml version="1.0" encoding="UTF-8"?>
<svg width="129px" height="108px" viewBox="0 0 129 108" version="1.1" xmlns="http://www.w3.org/2000/svg" xmlns:xlink="http://www.w3.org/1999/xlink">
    <title>编组</title>
    <defs>
        <polygon id="path-1" points="0 0 128.9949 0 128.9949 69.2894998 0 69.2894998"></polygon>
    </defs>
    <g id="页面-1" stroke="none" stroke-width="1" fill="none" fill-rule="evenodd">
        <g id="编组" transform="translate(0.000000, 0.000000)">
            <path d="M84.3222,8.348 C83.4742,3.165 74.2132,0 74.2132,0 L56.6652,0 L22.7602,77.71 C31.2052,82.365 47.2152,79.851 47.2152,79.851 L67.9662,29.669 L83.3172,70.541 L104.0682,58.344 C104.0682,58.344 86.7082,13.158 84.3222,8.348 L84.3222,8.348 Z M108.6212,72.529 L89.0562,89.369 L95.1272,104.875 L121.1022,104.709 L108.6212,72.529 Z" id="Fill-1" fill="#064BBC"></path>
            <g transform="translate(0.000000, 38.699300)">
                <mask id="mask-2" fill="white">
                    <use xlink:href="#path-1"></use>
                </mask>
                <g id="Clip-4"></g>
                <path d="M38.2999,47.669 C5.1489,47.824 17.4069,29.615 30.3909,22.1 L30.9449,20.358 C24.4529,22.713 0.1569,36.931 -0.000325700987,54.993 C-0.0621,62.752 12.6519,72.372 35.0979,68.338 C67.1499,62.597 114.1139,36.372 128.9949,0 C128.1469,1.304 100.2389,43.386 38.2999,47.669" id="Fill-3" fill="#0596FF" mask="url(#mask-2)"></path>
            </g>
        </g>
    </g>
</svg>