<?xml version="1.0" encoding="UTF-8"?>
<svg width="835px" height="108px" viewBox="0 0 835 108" version="1.1" xmlns="http://www.w3.org/2000/svg" xmlns:xlink="http://www.w3.org/1999/xlink">
    <title>编组</title>
    <defs>
        <polygon id="path-1" points="0 0 128.9948 0 128.9948 69.2894998 0 69.2894998"></polygon>
    </defs>
    <g id="页面-1" stroke="none" stroke-width="1" fill="none" fill-rule="evenodd">
        <g id="编组" transform="translate(-0.000000, 0.000000)">
            <path d="M84.3222,8.348 C83.4742,3.165 74.2132,0 74.2132,0 L56.6652,0 L22.7602,77.71 C31.2052,82.365 47.2152,79.851 47.2152,79.851 L67.9662,29.669 L83.3172,70.541 L104.0682,58.344 C104.0682,58.344 86.7082,13.158 84.3222,8.348 L84.3222,8.348 Z M108.6212,72.529 L89.0562,89.369 L95.1272,104.875 L121.1022,104.709 L108.6212,72.529 Z" id="Fill-1" fill="#064BBC"></path>
            <g transform="translate(0.000000, 38.699400)">
                <mask id="mask-2" fill="white">
                    <use xlink:href="#path-1"></use>
                </mask>
                <g id="Clip-4"></g>
                <path d="M38.2998,47.669 C5.1488,47.824 17.4068,29.615 30.3908,22.1 L30.9458,20.358 C24.4538,22.713 0.1568,36.931 -0.000425700987,54.993 C-0.0622,62.752 12.6518,72.372 35.0978,68.338 C67.1498,62.597 114.1138,36.373 128.9948,0 C128.1468,1.304 100.2388,43.386 38.2998,47.669" id="Fill-3" fill="#0596FF" mask="url(#mask-2)"></path>
            </g>
            <path d="M163.6847,25.2977 C164.9957,29.4157 166.2887,33.5377 167.5787,37.6617 C169.3607,43.3597 171.2087,49.0417 173.0767,54.7187 C173.3147,55.4427 173.7227,55.5807 174.4847,55.5857 C178.5897,55.6157 182.6937,55.4387 186.7987,55.5507 C187.4257,55.5677 187.5577,55.3997 187.3527,54.8167 C186.7837,53.1967 186.3417,51.5467 185.8357,49.9107 C184.0287,44.0627 182.5217,38.1467 180.7257,32.2947 C179.7147,28.9977 178.8897,25.6547 177.9807,22.3327 C177.6887,21.2637 177.6157,21.2197 176.3997,21.3207 C176.1077,21.3447 175.8137,21.3477 175.5207,21.3477 C172.9547,21.3497 170.3887,21.3487 167.8227,21.3487 C166.4047,21.2307 164.9897,21.2857 163.5727,21.3457 C162.4717,21.3927 162.3077,21.5927 162.6677,22.5397 C163.0157,23.4557 163.3887,24.3677 163.6847,25.2977 L163.6847,25.2977 Z M227.2197,55.5737 C229.3467,55.5857 231.4727,55.5777 233.5997,55.5777 L233.5997,55.5697 C235.6777,55.5697 237.7557,55.5517 239.8327,55.5809867 C240.4797,55.5897 240.8097,55.3877 241.0027,54.8477 C241.5957,53.1887 242.2737,51.5517 242.8427,49.8857 C244.5977,44.7427 246.3627,39.6017 248.0157,34.4317 C249.3127,30.3777 250.5517,26.3107 251.8027,22.2467 C252.0657,21.3927 251.9177,21.2537 250.9227,21.2537 C246.5497,21.25295 242.1767,21.25295 237.8027,21.2537 C236.7017,21.2537 236.6327,21.3207 236.3927,22.2557 C235.7737,24.6647 235.1807,27.0797 234.4967,29.4747 C232.6937,35.7897 230.8687,42.0997 228.7417,48.3387 C228.0197,50.4577 227.4487,52.6177 226.5397,54.6867 C226.2197,55.4147 226.3227,55.5687 227.2197,55.5737 L227.2197,55.5737 Z M515.9507,48.0587 C517.7327,48.0827 519.5157,48.1197 521.2967,48.0277 C521.5747,48.0137 521.7077,48.1247 521.7277,48.3547 C521.7407,48.5047 521.7417,48.6557 521.7417,48.8057 C521.7397,53.4667 521.7387,58.1277 521.7327,62.7877 C521.7317,63.8087 521.7247,63.8097 520.5367,63.8167 C519.2177,63.8227 517.8987,63.8287 516.5797,63.8297246 C515.5937,63.8307 515.5667,63.8057 515.5667,62.9137 C515.5647,60.5507 515.5657,58.1887 515.5657,55.8257 L515.5127,55.8257 C515.5127,53.3777 515.5187,50.9307 515.505666,48.4827 C515.5037,48.1787 515.5887,48.0537 515.9507,48.0587 L515.9507,48.0587 Z M504.1997,72.2377 C504.2227,73.0017 504.3447,73.1107 505.2457,73.1040034 C506.4907,73.0947 507.7357,73.0187 508.9797,73.0157 C515.2857,72.9977 521.5917,73.0007 527.8967,72.9807 C530.5517,72.9717 532.1537,71.7647 532.5967,69.4677 C532.6907,68.9827 532.7397,68.4857 532.7407,67.9937 C532.7517,63.4797 532.7467,58.9667 532.7467,54.4527 L532.7407,54.4527 C532.7407,49.8107 532.7457,45.1677 532.7367,40.5257 C532.7347,39.3247 532.1647,38.7097 530.8407,38.3997 C530.4117,38.2987 529.9747,38.2787 529.5327,38.2797 C524.7917,38.2847 520.0497,38.2857 515.3087,38.2877 C514.3567,38.2887 513.4117,38.4207 512.4547,38.3557 C510.2837,38.2087 508.1057,38.2577 505.9337,38.3167 C504.4887,38.3557 504.2537,38.6267 504.2547,39.8917 C504.2597,47.1317 504.2847,54.3707 504.1477,61.6097 C504.1277,62.6407 504.3087,63.6667 504.2377,64.7007 C504.0667,67.2117 504.1217,69.7257 504.1997,72.2377 L504.1997,72.2377 Z M499.5977,73.5307 C499.5047,73.5547 499.4127,73.5867 499.3197,73.6127 C497.8077,74.0377 496.3007,74.4777 494.7807,74.8807 C493.8047,75.1387 493.7307,75.0747 493.7307,74.1877 C493.7287,69.0057 493.7297,63.8237 493.7297,58.6427 L493.6787,58.6427 C493.6787,53.3527 493.6827,48.0637 493.6697,42.7747 C493.6687,42.4137 493.8117,42.3427 494.1847,42.3487 C495.9437,42.3787 497.7027,42.3967 499.4627,42.3987 C500.3887,42.3997 500.6217,42.2057 500.6127,41.4207 C500.5797,38.5627 500.7657,35.7067 500.6447,32.8497 C500.6107,32.0467 500.4977,31.9277 499.5557,31.9277 C497.9417,31.9277 496.3287,31.9447 494.7147,31.9527 C493.7527,31.9577 493.7437,31.9507 493.7437,31.0847 C493.7397,25.0427 493.7407,19.0007 493.7347,12.9587 C493.7337,11.6667 493.4747,11.3597 492.0107,11.3407 C488.4417,11.2967 484.8717,11.3207 481.3017,11.3207 C480.6597,11.3197 480.3747,11.6297 480.3767,12.1747 C480.3777,12.4757 480.3787,12.7767 480.3717,13.0777 C480.2337,19.0527 480.6467,25.0277 480.3827,31.0027 C480.3397,31.9537 480.3687,31.9577 479.2607,31.9537 C477.2067,31.9467 475.1527,31.9297 473.0997,31.9297 C472.2057,31.9297 471.9697,32.1077 471.9917,32.8647 C472.0757,35.7657 471.7717,38.6647 471.9617,41.5657 C472.0107,42.3227 472.0727,42.4107 472.9597,42.3987 C475.1107,42.3677 477.2607,42.3197 479.4107,42.2867 C480.4817,42.2707 480.4757,42.2777 480.3987,43.1907 C480.3737,43.4897 480.3787,43.7917 480.3787,44.0927 C480.3787,49.5737 480.3817,55.0537 480.3817,60.5337 C480.3817,66.2967 480.3697,72.0587 480.3937,77.8217 C480.3957,78.3247 480.2417,78.5317 479.6957,78.6797 C477.1287,79.3787 474.5717,80.1067 472.0217,80.8517 C470.9327,81.1697 470.8847,81.3117 470.9987,82.3207 C471.3117,85.0877 471.8747,87.8077 472.8527,90.4587 C473.1477,91.2557 473.3957,91.3927 474.2897,91.1747 C478.9277,90.0457 483.5977,89.0207 488.1737,87.6967 C492.2357,86.5217 496.3287,85.4247 500.1957,83.7837 C500.8147,83.5207 501.0507,83.1517 501.0577,82.5717 C501.0897,79.9077 501.1487,77.2427 501.1887,74.5777 C501.2077,73.2727 501.0187,73.1547 499.5977,73.5307 L499.5977,73.5307 Z M255.9607,87.3027 C253.8917,86.5267 251.9147,85.5887 249.9477,84.6257 C243.3387,81.3927 237.4817,77.3287 232.2507,72.5317 C228.8817,69.4407 226.0387,66.0067 223.5077,62.3767 C220.6107,58.2237 218.3387,53.8077 216.6957,49.1377 C215.2107,44.9187 214.3007,40.6197 214.2607,36.2127 C214.1907,28.4527 214.2407,20.6907 214.2437,12.9297 C214.2437,11.7317 213.8237,11.3197 212.4797,11.3157 C208.6167,11.3047 204.7547,11.3083195 200.8917,11.3137 C200.0017,11.3147 199.8357,11.4827 199.8357,12.2777 C199.8367,14.7717 199.8477,17.2657 199.8367,19.7597 C199.8087,25.7327 199.9317,31.7087 199.4147,37.6737 C199.0077,42.3767 197.7887,46.9327 196.0977,51.3857 C194.1747,56.4457 191.4407,61.1767 188.0197,65.5797 C185.7847,68.4567 183.2077,71.1097 180.4357,73.5987 C177.6117,76.1347 174.5327,78.4097 171.2317,80.4707 C167.3547,82.8907 163.2597,84.9787 159.0927,86.9667 C157.5767,87.6897 157.4907,87.6657 158.0657,89.1137 C159.4517,92.6017 160.9007,96.0697 162.3197,99.5477 C162.4607,99.8957 162.6827,99.9577 163.0507,99.7997 C166.7867,98.1957 170.4517,96.4727 173.9787,94.5447 C178.0047,92.3447 181.9277,90.0117 185.4727,87.2107 C187.5987,85.5317 189.8177,83.9387 191.7427,82.0767 C194.5057,79.4057 197.0967,76.6147 199.3527,73.5817 C201.8077,70.2777 203.9557,66.8457 205.5987,63.1687 C206.1157,62.0107 206.6087,60.8477 207.0487,59.4737 C208.5687,63.0747 210.1987,66.4227 212.1597,69.6527 C215.6937,75.4757 220.2987,80.5557 225.7047,85.0987 C230.3757,89.0257 235.6197,92.2767 241.1537,95.1767 C244.3057,96.8267 247.5677,98.2997 250.9137,99.6257 C251.6567,99.9207 251.7997,99.8677 252.0897,99.1677 C252.3077,98.6437 252.4947,98.1097 252.7067,97.5827 C253.9527,94.4837 255.1937,91.3827 256.4577,88.2887 C256.6667,87.7767 256.5437,87.5207 255.9607,87.3027 L255.9607,87.3027 Z M572.3177,90.6337 C569.4677,88.9557 566.8607,87.0267 564.4847,84.8427 C561.6267,82.2167 559.5047,79.1777 557.7447,75.9187 C557.5867,75.6267 557.6437,75.4017 557.8097,75.1357 C561.3507,69.4907 563.7677,63.4647 565.6327,57.2507 C566.6567,53.8397 567.5437,50.4027 568.1517,46.9177 C568.4397,45.2657 568.7647,43.6107 568.8567,41.9327 C568.8887,41.3497 568.6027,41.1107 567.9537,41.1117 C564.6777,41.1167 561.4007,41.1167 558.1247,41.1037 C557.4647,41.1017 557.1227,41.3197 557.0957,41.9227 C557.0307,43.3887 556.6867,44.8237 556.3807,46.2577 C555.7647,49.1507 555.0877,52.0337 554.4057,54.9157 C553.9247,56.9487 553.2867,58.9467 552.5607,60.9287 C552.3207,60.8527 552.3367,60.6837 552.3077,60.5467 C551.3087,55.8937 550.7757,51.1907 550.3667,46.4757 C550.2147,44.7197 550.0807,42.9617 549.9857,41.2027 C549.8467,38.6497 549.7527,36.0937 549.6357,33.5397 C549.6187,33.1627 549.7997,32.9817 550.2377,32.9867 C550.7017,32.9917 551.1677,32.9927 551.6307,32.9667 C555.0727,32.7687 558.5167,32.8977 561.9577,32.9507 C564.4067,32.9887 566.3027,32.2577 567.7367,30.4907 C568.6507,29.3647 568.7477,28.0967 568.8317,26.8097 C568.9737,24.6227 568.6407,22.4827 568.0227,20.3627 C567.3977,18.2197 566.8627,16.0567 566.2537,13.9097 C566.1027,13.3767 566.0617,12.7167 565.1087,12.7197 C561.6617,12.7297 558.2137,12.7227 554.7657,12.7167 C554.1577,12.7157 554.0097,12.9027 554.2117,13.4337 C555.2227,16.0837 556.0917,18.7717 556.9507,21.4617 C557.1747,22.1637 557.0987,22.2537 556.2727,22.2557 C554.3667,22.2597 552.4597,22.2347 550.5537,22.2737 C549.8567,22.2887 549.6137,22.1117 549.6247,21.4797 C549.6627,19.0937 549.6467,16.7067 549.6497,14.3197 C549.6507,13.6967 549.6607,13.0727 549.6447,12.4497 C549.6227,11.5927 549.3327,11.3327 548.3877,11.2827 C547.8757,11.2557 547.3647,11.2007 546.8527,11.1987 C543.9427,11.1887 541.0327,11.1905367 538.1227,11.1905367 C536.6947,11.1905367 536.5477,11.3337 536.5487,12.6107 C536.5507,15.5777 536.5437,18.5457 536.5357,21.5127 C536.5347,21.8497 536.6037,22.1977 535.9637,22.1967 C533.2057,22.1957 530.4477,22.2297 527.6897,22.2547 C519.7467,22.3277 511.8037,22.1337 503.8597,22.2597 C502.6057,22.2787 502.3777,22.4697 502.3777,23.5937 C502.3767,26.0447 502.3787,28.4967 502.3857,30.9477 C502.3867,31.2477 502.3977,31.5517 502.4577,31.8457 C502.6407,32.7427 503.0507,33.0017 504.0767,32.9227 C504.4167,32.8967 504.7597,32.8927 505.1017,32.8917 C508.3777,32.8777 511.6527,32.8647 514.9267,32.9807 C515.7087,33.0077 516.4807,32.8557 517.2687,32.9157 C519.7557,33.1037 522.2517,32.9697 524.7367,32.9257 C528.4997,32.8597 532.2597,32.9837 536.0207,32.9027 C536.5367,32.8907 536.6897,33.0957 536.6927,33.5267 C536.7007,34.8157 536.7687,36.1047 536.7927,37.3927 C536.8677,41.4137 537.1607,45.4227 537.5757,49.4237 C538.1087,54.5597 538.8547,59.6687 540.1577,64.7077 C541.0317,68.0857 542.0047,71.4347 543.3107,74.7037 C543.5317,75.2557 543.4427,75.6567 543.0857,76.1287 C541.0187,78.8637 538.5267,81.2827 535.9467,83.6367 C535.2267,84.2927 534.4467,84.8997 533.5887,85.6167 C533.5887,85.3947 533.5887,85.2967 533.5887,85.1987 C533.5997,82.9407 533.6187,80.6837 533.6157,78.4257 C533.6147,77.7627 533.3907,77.5927 532.6817,77.7057 C529.3637,78.2337 526.0527,78.7917 522.7327,79.3077 C519.2917,79.8427 515.8487,80.3637 512.3987,80.8507 C508.9977,81.3307 505.5877,81.7667 502.1797,82.2087 C501.6167,82.2817 501.2767,82.4667 501.2897,83.0197 C501.3607,86.0047 501.0217,88.9907 501.3357,91.9757 C501.4147,92.7287 501.7817,93.0247 502.6307,92.9187 C507.7347,92.2797 512.8737,91.8667 517.9467,91.0327 C520.7797,90.5667 523.6387,90.2257 526.4447,89.6297 C527.5097,89.4027 528.5707,89.1407 529.6797,89.0977 C530.0787,89.0817 530.2227,89.1217 530.0307,89.5127 C529.5687,90.4567 529.5477,91.4467 529.8767,92.4177 C530.5407,94.3787 531.4117,96.2717 532.4317,98.1107 C532.7777,98.7357 533.0197,98.8067 533.6897,98.4297 C534.5127,97.9677 535.2947,97.4497 536.0957,96.9577 C539.8657,94.6407 543.0867,91.7947 546.2157,88.8587 C547.1547,87.9777 547.9427,86.9937 548.7797,86.0417 C549.0827,85.6967 549.3257,85.6217 549.6467,86.0817 C552.5677,90.2597 556.2207,93.8707 560.6187,96.8867 C562.6267,98.2647 564.7557,99.4767 567.1217,100.3467 C567.8067,100.5997 568.2237,100.4777 568.5127,99.8737 C568.9107,99.0417 569.3647,98.2307 569.7677,97.4007 C570.6977,95.4837 571.6147,93.5607 572.5327,91.6387 C572.7087,91.2687 572.8307,90.9357 572.3177,90.6337 L572.3177,90.6337 Z M742.6987,93.1867 C741.5467,92.0767 740.3647,90.9707 739.2427,89.8497 C736.5027,87.1097 733.9997,84.1847 731.4357,81.3107 C730.9787,80.7977 730.4857,80.5967 729.7597,80.5907 C726.2177,80.5637 722.6787,80.7767 719.1337,80.6217 C717.4787,80.5497 715.8127,80.6987 714.1517,80.6897 C710.4857,80.6707 706.8207,80.7497 703.1527,80.6247 C700.8127,80.5447 698.4627,80.6567 696.1177,80.7007 C692.7447,80.7637 690.2197,78.8507 690.2957,75.7037 C690.3837,71.9847 690.3067,68.2637 690.3027,64.5437 C690.3017,63.5827 690.3027,63.5777 691.4007,63.5777 C700.7157,63.5777 710.0317,63.5727 719.3477,63.5847 C721.9617,63.5877 724.5787,63.4977 727.1907,63.6637 C727.6617,63.6937 727.8687,63.5097 727.8767,63.1067 C727.9137,61.2807 728.0527,59.4517 727.9717,57.6297 C727.8437,54.7477 727.9347,51.8687 727.9097,48.9887 C727.8997,47.9387 727.9437,47.9337 726.7677,47.9467 C720.1427,48.0247 713.5187,47.9367 706.8927,48.0097 C703.5737,48.0467 700.2457,47.9767 696.9217,47.9687 C694.9187,47.9637 692.9127,47.8787 690.9117,48.0317 C690.3757,48.0727 690.3047,47.8077 690.3067,47.4387 C690.3157,46.1487 690.3327,44.8587 690.3157,43.5687 C690.2617,39.4207 690.4497,35.2697 690.1917,31.1237 C690.1497,30.4447 690.5297,30.4067 691.1207,30.4067 C703.7367,30.4137 716.3537,30.4027 728.9697,30.4277 C729.9647,30.4297 730.6627,30.1937 731.2927,29.5037 C734.0927,26.4407 737.0297,23.4767 739.8037,20.3937 C741.1537,18.8947 742.5587,17.4347 743.9357,15.9547 C744.1367,15.7387 744.3677,15.5097 744.2407,15.2047 C744.1017,14.8707 743.7357,14.9147 743.4257,14.9037 C742.3267,14.8657 741.2287,14.8087 740.1297,14.8077 C731.3027,14.8007 722.4767,14.8037 713.6497,14.8037 L713.6497,14.8007 C704.5537,14.8007 695.4587,14.8017 686.3627,14.7977 C685.4037,14.7977 684.4547,14.8737 683.5327,15.0957 C681.0807,15.6887 678.9727,16.7757 677.1587,18.3667 C674.4957,20.7017 672.9967,23.5087 672.7167,26.7697 C672.5287,28.9517 672.564232,31.1517 672.5727,33.3437 C672.5987,39.8567 672.5107,46.3707 672.6557,52.8847 C672.7477,57.0317 672.6577,61.1817 672.5907,65.3297 C672.5257,69.2837 672.6407,73.2397 672.6747,77.1947 C672.6817,77.9897 672.6667,78.7857 672.6887,79.5807 C672.7397,81.4967 673.2597,83.3277 674.0897,85.0857 C675.4167,87.8927 677.4417,90.2637 680.0407,92.2597 C682.3797,94.0567 685.0387,95.3267 688.0527,96.0107 C690.6297,96.5957 693.2417,96.6897 695.8997,96.6537 C700.8337,96.5887 705.7697,96.6857 710.7047,96.7137 C713.7597,96.7307 716.8147,96.6737 719.8697,96.6467 C722.3347,96.6257 724.8037,96.6447 727.2687,96.6637 C731.7137,96.6967 736.1677,96.5537 740.6037,96.8767 C741.9477,96.9747 743.1797,96.5377 744.4817,96.4917 C744.6887,96.4837 744.6317,96.3317 744.6207,96.1967 C744.5187,94.9277 743.5787,94.0357 742.6987,93.1867 L742.6987,93.1867 Z M660.7147,48.2177 C655.2657,48.2177 649.8167,48.2197 644.3677,48.2207 C641.0917,48.2217 637.8157,48.2207 634.5397,48.2207 L634.5397,48.2147 C630.8237,48.2147 627.1077,48.2127 623.3917,48.2167 C622.5487,48.2177 622.3907,48.3457 622.3897,49.0737 C622.3817,53.6327 622.3917,58.1907 622.3727,62.7487 C622.3697,63.3697 622.6437,63.6127 623.3307,63.5617 C623.9387,63.5167 624.5497,63.4727 625.1597,63.4717 C631.2717,63.4607 637.3837,63.4617 643.4957,63.4477 C644.0147,63.4467 644.2547,63.5907 644.2497,64.0757 C644.2217,66.4827 644.2837,68.8907 644.0827,71.2937 C643.9867,72.4367 643.5617,73.4967 642.8397,74.4277 C639.6697,78.5207 635.0427,80.6697 629.7067,81.6867 C627.0657,82.1897 624.3437,82.2417 621.6087,82.0527 C617.6157,81.7757 613.9527,80.6657 610.5407,78.9237 C607.1757,77.2047 604.2867,74.9757 601.9087,72.2347 C599.2867,69.2107 597.5417,65.8507 596.5647,62.1567 C595.7377,59.0277 595.5867,55.8647 595.8457,52.6767 C595.9917,50.8737 596.2187,49.0717 596.8057,47.3367 C598.5397,42.2027 601.4927,37.7347 606.1377,34.1787 C608.7537,32.1757 611.6237,30.6007 614.9367,29.6667 C618.2557,28.7297 621.6387,28.3597 625.1277,28.5807 C628.8647,28.8167 632.4007,29.6517 635.7307,31.1347 C638.5417,32.3857 640.9877,34.1017 643.2967,35.9707 C643.6737,36.2747 643.9547,36.4317 644.3747,35.9957 C647.6597,32.5877 650.9767,29.2027 654.2557,25.7907 C655.6047,24.3877 655.4157,24.5197 654.1257,23.5127 C654.1077,23.4987 654.0907,23.4827 654.0737,23.4677 C648.9057,19.1117 642.9567,15.9377 636.0687,14.1307 C630.6047,12.6967 625.0187,12.2917 619.3797,12.6507 C614.5247,12.9597 609.8787,14.0897 605.4207,15.8837 C598.5347,18.6547 592.8767,22.7307 588.2227,27.9367 C585.1957,31.3247 582.7877,35.0217 581.1127,39.0767 C579.2797,43.5147 578.2907,48.1027 578.0977,52.8167 C577.8537,58.7877 578.4477,64.6577 580.6907,70.3587 C582.1107,73.9647 584.0157,77.3337 586.5517,80.4157 C590.5897,85.3217 595.4147,89.4987 601.3407,92.6577 C604.7707,94.4847 608.3927,95.9107 612.2297,96.9067 C616.7497,98.0807 621.3487,98.4967 626.0727,98.1797 C631.0047,97.8487 635.7267,96.8597 640.2337,95.1167 C646.3357,92.7577 651.3117,89.1307 655.3547,84.4857 C659.8267,79.3477 661.9217,73.4687 662.1017,67.0847 C662.2687,61.2187 662.1437,55.3457 662.1427,49.4767 C662.1427,48.3367 662.0057,48.2177 660.7147,48.2177 L660.7147,48.2177 Z M356.8417,27.9847 C356.8407,26.6417 356.5607,26.3997 355.0437,26.3987 C351.2047,26.3967 347.3667,26.4017 343.5277,26.4027 C341.9717,26.4037 341.9417,26.4317 341.9917,27.8207 C341.9967,27.9497 341.9957,28.0787 341.9947,28.2077 C341.9337,42.3537 342.1217,56.5007 341.8917,70.6467 C341.8377,73.9787 341.8847,77.3117 341.8827,80.6447 C341.8827,81.4377 342.0257,82.2227 341.9457,83.0257 C341.8797,83.6797 341.5757,83.8257 340.8827,83.8267 C336.6837,83.8307 332.4877,83.6657 328.2867,83.7837 C325.5507,83.8597 322.8097,83.8007 320.0717,83.7987 C319.1567,83.7987 319.1327,83.7727 319.1327,82.9597 C319.1317,71.3487 319.1317,59.7387 319.1317,48.1277 C319.1317,36.7317 319.1327,25.3367 319.1287,13.9407 C319.1287,13.4907 319.1267,13.0347 319.0507,12.5917 C318.9167,11.8137 318.4777,11.4827 317.5937,11.4117 C317.1807,11.3787 316.7667,11.3277 316.3527,11.3267 C312.9057,11.3197 309.4577,11.3197 306.0107,11.3237 C304.8077,11.3247 304.6037,11.5087 304.6037,12.5647 C304.5967,27.4437 304.5947,42.3227 304.5827,57.2017 C304.5757,65.7787 304.6617,74.3567 304.4717,82.9337 C304.4537,83.7837 304.4377,83.8167 303.4817,83.8007 C302.2357,83.7797 300.9907,83.7117 299.7457,83.7057 C296.6187,83.6927 293.4927,83.7047 290.3657,83.7037 C288.1427,83.7037 285.9187,83.6927 283.6957,83.7857 C282.6207,83.8307 282.6207,83.7967 282.6207,82.8317 C282.6217,64.6197 282.6237,46.4087 282.6237,28.1967 C282.6237,26.6567 282.3387,26.4067 280.5757,26.4067 C276.6877,26.4067 272.8007,26.4097 268.9127,26.4117 C267.7537,26.4127 267.6347,26.5217 267.6347,27.5747 C267.6337,50.1297 267.6327,72.6837 267.6317,95.2387 C267.6317,96.7527 267.6357,96.7487 269.3187,96.7487 C289.9517,96.7497 310.5847,96.7517 331.2177,96.7537 C336.5477,96.7537 341.8777,96.7677 347.2077,96.7407 C352.0547,96.7157 355.9767,93.7217 356.7067,89.4977 C356.9867,87.8797 356.8727,86.2417 356.8727,84.6097 C356.8727,78.0747 356.7867,71.5397 356.9607,65.0057 C356.9987,63.5677 356.8727,62.1267 356.8707,60.6877 C356.8547,49.7867 356.8527,38.8857 356.8417,27.9847 L356.8417,27.9847 Z M816.0927,57.4477 C815.7857,60.9957 814.6627,64.3347 813.0057,67.5357 C811.3757,70.6817 808.9327,73.3317 806.0627,75.6857 C803.2497,77.9937 800.0067,79.6777 796.3877,80.7807 C794.8017,81.2647 793.1217,81.4317 791.4527,81.6417 C788.5867,82.0027 785.7507,81.7677 782.9227,81.4537 C781.6347,81.3107 780.3767,80.9237 779.1237,80.5787 C778.1947,80.3237 777.2957,79.9947 776.3407,79.7987 C774.8177,79.4847 773.5107,78.7427 772.2457,77.9767 C767.2037,74.9277 763.4247,70.9557 761.1507,65.9397 C759.6627,62.6557 758.8897,59.2357 758.9677,56.0587 C758.9447,51.7997 759.5687,48.0147 761.2727,44.4077 C762.7217,41.3377 764.8037,38.6187 767.3837,36.2017 C770.8687,32.9377 775.0097,30.5907 779.9547,29.4067 C785.8487,27.9957 791.6407,28.3147 797.3707,30.1307 C801.2427,31.3567 804.5687,33.3257 807.4427,35.8627 C810.0457,38.1597 812.2277,40.7747 813.6827,43.7647 C815.8047,48.1277 816.5017,52.7087 816.0927,57.4477 L816.0927,57.4477 Z M833.9717,48.3997 C833.4727,45.0707 832.4617,41.8777 831.1257,38.7547 C830.0797,36.3107 828.6077,34.0447 827.0027,31.8617 C824.5147,28.4777 821.6797,25.3437 818.2057,22.6697 C813.9307,19.3787 809.1587,16.8147 803.8817,15.0057 C798.3447,13.1067 792.5467,12.4447 786.6317,12.4917 C785.5557,12.4917 784.4727,12.4177 783.4067,12.5037 C778.3567,12.9127 773.5017,13.9657 768.8807,15.8587 C761.7587,18.7747 755.8697,23.0297 751.0077,28.4147 C748.7807,30.8817 747.0327,33.6087 745.4667,36.4417 C742.7307,41.3927 741.4227,46.6607 740.9647,52.0957 C740.6897,55.3527 740.8317,58.6307 741.3947,61.8707 C742.0237,65.4927 743.0787,69.0137 744.6037,72.4357 C746.1277,75.8577 748.7197,78.7377 750.6507,81.9507 C751.3267,83.0757 752.3357,84.0407 753.2647,85.0357 C754.9787,86.8717 757.0357,88.3817 759.0827,89.9037 C760.6497,91.0697 762.4087,91.9837 764.1627,92.9157 C766.2647,94.0337 768.3887,95.0797 770.7037,95.8357 C771.3837,96.0577 772.1167,96.1857 772.7467,96.4927 C773.6617,96.9387 774.6787,97.1557 775.6517,97.3187 C777.2947,97.5937 778.8897,98.1447 780.6027,98.0957 C781.0877,98.0817 781.5897,98.1087 782.0597,98.2047 C784.5787,98.7207 787.1087,98.5727 789.6377,98.3307 C791.9827,98.1067 794.3367,97.9647 796.6537,97.4997 C797.9337,97.2427 799.2137,96.9637 800.4727,96.6587 C802.0007,96.2887 803.5247,95.8507 804.9487,95.1827 C806.0377,94.6727 807.2477,94.3587 808.3147,93.8217 C809.6637,93.1427 811.0427,92.5077 812.3037,91.6837 C814.4197,90.3027 816.4877,88.8767 818.4027,87.2847 C820.5867,85.4677 822.4667,83.4187 824.3047,81.3357 C824.4307,81.1927 824.5687,81.0557 824.4837,80.8777 C824.3267,80.5537 824.5437,80.3447 824.7407,80.1267 C826.0367,78.6947 827.1827,77.1667 828.1997,75.5777 C830.6107,71.8107 832.3367,67.8007 833.4237,63.5817 C834.1107,60.9107 834.4967,58.1977 834.490769,55.4657 C834.4857,53.1077 834.3247,50.7517 833.9717,48.3997 L833.9717,48.3997 Z M389.1747,37.8157 C389.2757,37.5337 389.6027,37.4867 389.8107,37.3417 C393.1067,35.0397 396.2717,32.6207 399.0617,29.8317 C401.0357,27.8577 402.8577,25.7917 404.4417,23.5637 C404.6317,23.2967 404.8697,23.1697 405.2227,23.1827 C408.2767,23.3037 411.3277,22.9467 414.3837,23.1547 C415.0847,23.2027 415.7977,23.0857 416.5047,23.0907 C418.9237,23.1067 421.3517,23.2647 423.7587,23.1267 C425.2037,23.0437 425.9127,23.4617 426.7317,24.4697 C430.5327,29.1437 435.0177,33.2647 440.2347,36.7497 C440.7047,37.0627 441.2097,37.3527 441.5607,37.8157 L389.1747,37.8157 Z M462.5307,35.8407 C461.6127,35.3917 460.7067,34.9247 459.7997,34.4587 C455.3807,32.1867 451.2087,29.6067 447.3187,26.6797 C445.4987,25.3097 443.7147,23.9017 442.0517,22.3867 C438.8247,19.4457 435.9237,16.2577 433.0657,13.0397 C432.3347,12.2167 431.4527,11.7757 430.1827,11.7907 C425.8807,11.8417 421.5767,11.8057 417.2737,11.8047 C411.2347,11.8027 405.1947,11.8147 399.1567,11.7876477 C398.2997,11.7837 397.6987,12.0087 397.2767,12.6547 C397.0207,13.0457 396.7437,13.4267 396.4427,13.7907 C392.2807,18.8497 387.8367,23.6767 382.2627,27.6267 C377.9927,30.6537 373.6007,33.5127 368.7387,35.7687 C367.9617,36.1287 367.6677,36.5757 367.675541,37.3417 C367.7117,40.7817 367.6907,44.2217 367.6917,47.6617 C367.6917,47.8127 367.6877,47.9637 367.7067,48.1127 C367.7587,48.5137 367.9737,48.6287 368.4087,48.4447 C372.4207,46.7527 376.3397,44.9077 380.1357,42.8637 C380.3357,42.7557 380.5347,42.4987 380.7637,42.6067 C381.0377,42.7357 380.8847,43.0377 380.8797,43.2597 C380.8417,44.8927 380.7997,46.5247 380.7277,48.1567 C380.7007,48.7537 380.9277,49.0537 381.6447,49.0097 C382.0097,48.9867 382.3777,49.0107 382.7447,49.0107 C390.8127,49.0077 398.8817,49.0037 406.9497,49.0007 C407.8697,48.9997 407.8887,49.0137 407.8887,49.8357 C407.8857,52.0507 407.8817,54.2657 407.8777,56.4797 C407.8747,57.7267 407.8687,58.9737 407.8647,60.2207 C407.8637,60.5157 407.8617,60.8157 407.3777,60.7667 C406.3497,60.6647 405.3327,60.8637 404.3047,60.8437 C402.5457,60.8107 400.7857,60.7727 399.0287,60.7557 C393.8217,60.7037 388.6127,60.7267 383.4057,60.7477 C382.1607,60.7537 380.9177,60.8947 379.6717,60.7807 C378.4767,60.6717 378.2447,60.8577 378.2417,61.9207 C378.2347,64.9737 378.2407,68.0267 378.2137,71.0797 C378.2047,72.0157 378.2257,72.0787 379.2727,72.0777 C384.1877,72.0767 389.1017,72.0737 394.0167,72.0687 C394.8957,72.0687 395.7677,71.9457 396.6517,71.9907 C400.0957,72.1677 403.5437,72.0667 406.9887,72.0357 C407.6937,72.0297 407.8797,72.1617 407.8757,72.7537 C407.8547,76.5587 407.8507,80.3647 407.8717,84.1707 C407.8757,84.7727 407.6867,85.0007 406.9637,84.9957 C403.2477,84.9707 399.5307,84.9867 395.8147,84.9867 C387.5257,84.9847 379.2377,84.9807 370.9487,84.9817 C369.6517,84.9817 369.4557,85.1617 369.4557,86.2897 C369.4537,89.3427 369.4497,92.3957 369.4557,95.4497 C369.4587,96.5847 369.7847,96.8587 371.0607,96.8587 C385.7057,96.8577 400.3517,96.8587 414.9967,96.8587 L414.9967,96.8677 C429.4957,96.8677 443.9947,96.8667 458.4937,96.8687 C460.3997,96.8687 460.7817,96.5517 460.8477,94.8577 C460.8597,94.5567 460.8577,94.2557 460.8577,93.9547 C460.8547,91.5467 460.8517,89.1387 460.8467,86.7307 C460.8437,85.2677 460.5297,84.9907 458.8817,84.9897 C449.7137,84.9847 440.5447,84.9777 431.3757,84.9777 C428.6867,84.9777 425.9967,84.9677 423.3077,85.0187 C422.0607,85.0427 421.9427,84.9987 422.0427,83.9277 C422.2617,81.5677 422.0567,79.2047 422.0627,76.8427 C422.0667,75.4057 422.0547,73.9637 422.0017,72.5247 C421.9877,72.1707 422.1147,72.0497 422.5507,72.0507 C429.8607,72.0697 437.1717,72.0727 444.4817,72.0777 C446.5357,72.0787 448.5897,72.0807 450.6427,72.0747 C451.5927,72.0727 451.7957,71.8587 451.7117,71.0187 C451.6777,70.6767 451.6357,70.3307 451.6597,69.9897 C451.8497,67.3047 451.7067,64.6167 451.7537,61.9307 C451.7717,60.8657 451.6097,60.7257 450.4137,60.7357 C446.5037,60.7677 442.5937,60.7427 438.6827,60.8107 C433.4037,60.9017 428.1207,60.8267 422.8397,60.8517 C422.1127,60.8547 422.0177,60.6287 422.0437,60.0487 C422.1937,56.7187 422.1737,53.3857 422.0497,50.0557 C422.0107,49.0117 421.9517,49.0017 423.1307,49.0017 C431.4197,48.9997 439.7087,48.9997 447.9967,48.9977 C449.0817,48.9967 449.1247,48.9547 449.1267,48.0287 C449.1317,46.3517 449.1367,44.6747 449.1507,42.9977 C449.1527,42.7947 449.0337,42.5237 449.2977,42.4077 C449.5537,42.2967 449.7367,42.5377 449.9387,42.6417 C453.6857,44.5847 457.4497,46.4977 461.4317,48.0587 C462.8817,48.6267 463.0457,48.5567 463.0537,47.1527 C463.0737,43.6487 463.0867,40.1437 463.121753,36.6397 C463.1257,36.2247 462.9027,36.0227 462.5307,35.8407 L462.5307,35.8407 Z" id="Fill-5" fill="#343434"></path>
        </g>
    </g>
</svg>